<svg width="474" height="151" viewBox="0 0 474 151" fill="none" xmlns="http://www.w3.org/2000/svg">
<path d="M373.772 25.6927C377.8 25.6927 381.717 26.1609 385.471 27.0462C363.336 32.2661 346.875 51.9702 346.875 75.4798C346.875 98.9891 363.336 118.691 385.471 123.911C381.717 124.797 377.8 125.267 373.772 125.267C345.995 125.267 323.477 102.976 323.476 75.4798C323.476 47.9832 345.995 25.6928 373.772 25.6927ZM397.171 25.6927C424.948 25.6927 447.467 47.9831 447.467 75.4798C447.466 102.976 424.948 125.267 397.171 125.267C393.143 125.267 389.226 124.797 385.471 123.911C407.607 118.691 424.068 98.9891 424.068 75.4798C424.068 51.9702 407.607 32.2661 385.471 27.0462C389.225 26.1609 393.143 25.6927 397.171 25.6927Z" fill="white"/>
<path d="M225.537 123.367C225.414 122.849 225.404 122.598 225.297 122.401C218.967 111.403 212.775 100.322 206.235 89.4526C202.348 82.993 196.337 79.1251 188.838 78.5092C182.273 77.9721 175.645 78.1446 169.047 78.1446C158.992 78.1446 151.37 82.4756 146.318 91.3151C140.674 101.194 134.976 111.049 129.308 120.913C128.911 121.603 128.569 122.317 128.02 123.362C129.131 123.362 129.91 123.362 130.688 123.362C137.292 123.362 143.9 123.249 150.499 123.401C154.728 123.5 157.572 121.756 159.628 118.085C165.708 107.225 171.905 96.4345 178.063 85.6241C178.489 84.8801 178.969 84.1706 179.424 83.4414C179.645 85.7424 179.39 87.9153 179.39 90.0931C179.39 91.2609 179.561 92.5863 180.114 93.5718C184.858 101.987 189.719 110.339 194.516 118.72C196.308 121.849 198.912 123.411 202.529 123.372C207.175 123.317 211.825 123.357 216.471 123.357C219.447 123.357 222.428 123.357 225.527 123.357L225.537 123.367ZM128.143 25.7927C128.343 26.3741 128.402 26.6944 128.554 26.9555C134.927 38.032 141.129 49.2119 147.758 60.1306C152.379 67.7383 159.501 71.547 168.405 71.6998C173.707 71.7934 179.013 71.6998 184.314 71.7244C194.443 71.7737 201.976 67.2899 207.038 58.5293C212.897 48.3841 218.718 38.2241 224.553 28.0642C224.93 27.4088 225.253 26.7289 225.742 25.7927C217.866 25.7927 210.435 26.0489 203.029 25.7139C197.061 25.4429 193.238 27.7636 190.443 33.0407C186.238 40.9735 181.554 48.6452 176.933 56.6717C176.355 55.7651 175.905 55.1147 175.508 54.4249C171.054 46.6891 166.584 38.9583 162.169 31.1979C160.069 27.4827 156.97 25.7287 152.736 25.7779C147.023 25.842 141.316 25.7927 135.603 25.7927C133.185 25.7927 130.771 25.7927 128.143 25.7927Z" fill="white"/>
<path d="M50.3773 123.412V71.4239C50.3773 55.7884 59.3678 45.6253 74.026 45.6253C86.339 45.6253 94.3522 53.4431 94.3522 69.6649V123.412H118.196V63.9971C118.196 38.9803 105.688 23.9311 81.4529 23.9311C68.3582 23.9311 56.6315 29.599 50.5728 39.3711L48.6183 26.8627H26.5332V123.412H50.3773Z" fill="white"/>
<path d="M269.281 23.9311H279.938V127.069H269.281V23.9311Z" fill="#D9D9D9" fill-opacity="0.3"/>
</svg>
